<svg xmlns="http://www.w3.org/2000/svg" data-name="Layer 1" width="800" height="600" viewBox="0 0 900 600" xmlns:xlink="http://www.w3.org/1999/xlink">
  <path d="M698.1,472.51c-87.54,0-159.94-16.48-202.35-46.26-45.73-32.08-55.14-75.09-55.14-97.69,0-14.45,8.97-37.77,54.86-50.61,37.32-10.42,90.35-11.43,154.27-2.89,114.43,15.32,188.13,58.55,188.13,110.34C837.87,431,780.07,472.51,698.1,472.51Z" fill="#3498db" opacity="0.2"/>
  <path d="M367.73,274.69H256.11a4.42,4.42,0,0,1-4.42-4.42V210.29a4.42,4.42,0,0,1,4.42-4.42H367.73a4.42,4.42,0,0,1,4.42,4.42v59.98A4.42,4.42,0,0,1,367.73,274.69Z" fill="#3498db"/>
  <path d="M618.8,346.37H507.18a4.42,4.42,0,0,1-4.42-4.42V281.97a4.42,4.42,0,0,1,4.42-4.42H618.8a4.42,4.42,0,0,1,4.42,4.42v59.98A4.42,4.42,0,0,1,618.8,346.37Z" fill="#3498db"/>
  <path d="M329.46,433.04H217.84a4.42,4.42,0,0,1-4.42-4.42V368.64a4.42,4.42,0,0,1,4.42-4.42H329.46a4.42,4.42,0,0,1,4.42,4.42v59.98A4.42,4.42,0,0,1,329.46,433.04Z" fill="#3498db"/>
  <path d="M644.27,433.04H532.65a4.42,4.42,0,0,1-4.42-4.42V368.64a4.42,4.42,0,0,1,4.42-4.42H644.27a4.42,4.42,0,0,1,4.42,4.42v59.98A4.42,4.42,0,0,1,644.27,433.04Z" fill="#3498db"/>
  <path d="M483.93,182.05H372.31a4.42,4.42,0,0,1-4.42-4.42V117.65a4.42,4.42,0,0,1,4.42-4.42H483.93a4.42,4.42,0,0,1,4.42,4.42v59.98A4.42,4.42,0,0,1,483.93,182.05Z" fill="#3498db"/>
  <rect x="269.76" y="233.22" width="84.32" height="11.35" rx="3.35" fill="#fff"/>
  <rect x="269.76" y="249.98" width="40.97" height="11.35" rx="3.35" fill="#fff"/>
  <rect x="520.82" y="304.91" width="84.32" height="11.35" rx="3.35" fill="#fff"/>
  <rect x="520.82" y="321.67" width="40.97" height="11.35" rx="3.35" fill="#fff"/>
  <rect x="231.5" y="391.57" width="84.32" height="11.35" rx="3.35" fill="#fff"/>
  <rect x="231.5" y="408.33" width="40.97" height="11.35" rx="3.35" fill="#fff"/>
  <rect x="546.3" y="391.57" width="84.32" height="11.35" rx="3.35" fill="#fff"/>
  <rect x="546.3" y="408.33" width="40.97" height="11.35" rx="3.35" fill="#fff"/>
  <rect x="385.96" y="140.58" width="84.32" height="11.35" rx="3.35" fill="#fff"/>
  <rect x="385.96" y="157.34" width="40.97" height="11.35" rx="3.35" fill="#fff"/>
  <rect x="289.63" y="186.37" width="45.53" height="4.37" rx="1.87" fill="#e6e6e6"/>
  <rect x="289.63" y="194" width="27.96" height="4.37" rx="1.87" fill="#e6e6e6"/>
  <rect x="540.7" y="258.06" width="45.53" height="4.37" rx="1.87" fill="#e6e6e6"/>
  <rect x="540.7" y="265.68" width="27.96" height="4.37" rx="1.87" fill="#e6e6e6"/>
  <rect x="251.36" y="344.72" width="45.53" height="4.37" rx="1.87" fill="#e6e6e6"/>
  <rect x="251.36" y="352.35" width="27.96" height="4.37" rx="1.87" fill="#e6e6e6"/>
  <rect x="566.16" y="344.72" width="45.53" height="4.37" rx="1.87" fill="#e6e6e6"/>
  <rect x="566.16" y="352.35" width="27.96" height="4.37" rx="1.87" fill="#e6e6e6"/>
  <rect x="405.83" y="93.73" width="45.53" height="4.37" rx="1.87" fill="#e6e6e6"/>
  <rect x="405.83" y="101.36" width="27.96" height="4.37" rx="1.87" fill="#e6e6e6"/>
  <polygon points="312.66 415.24 147.64 415.24 147.64 213.35 230.15 161.04 312.66 213.35 312.66 415.24" fill="#2c3e50"/>
  <polygon points="312.66 415.24 147.64 415.24 147.64 213.35 230.15 161.04 312.66 213.35 312.66 415.24" opacity="0.2"/>
  <polygon points="305.12 405.53 155.18 405.53 155.18 217.89 230.15 169.48 305.12 217.89 305.12 405.53" fill="#2c3e50"/>
  <path d="M230.15,199.36a9.94,9.94,0,0,1-4.82-1.24l-71.43-39.27a9.76,9.76,0,0,1-4.87-8.44,9.89,9.89,0,0,1,4.87-8.42l71.43-39.27a9.94,9.94,0,0,1,9.64,0l71.43,39.27a9.77,9.77,0,0,1,4.87,8.42,9.92,9.92,0,0,1-4.87,8.44l-71.43,39.27A9.94,9.94,0,0,1,230.15,199.36Z" fill="#3498db"/>
  <path d="M198.35,415.24H158.56V184a4.96,4.96,0,0,1,4.96-4.96h29.87a4.96,4.96,0,0,1,4.96,4.96Z" fill="#3498db"/>
  <rect x="230.15" y="131.51" width="45.03" height="283.73" rx="4.25" fill="#3498db"/>
  <path d="M265.04,322.3H240.29a4.86,4.86,0,0,1-4.86-4.86V295.14a4.86,4.86,0,0,1,4.86-4.86h24.75a4.86,4.86,0,0,1,4.86,4.86v22.31A4.86,4.86,0,0,1,265.04,322.3Z" opacity="0.2"/>
  <path d="M198.35,208.5H173.6a4.86,4.86,0,0,1-4.86-4.86V181.34a4.86,4.86,0,0,1,4.86-4.86h24.75a4.86,4.86,0,0,1,4.86,4.86v22.31A4.86,4.86,0,0,1,198.35,208.5Z" opacity="0.2"/>
  <rect x="292.35" y="268.19" width="24.1" height="147.05" rx="4.25" fill="#3498db"/>
  <path d="M302.41,325.21h4a7.13,7.13,0,0,1,7.13,7.13v26.32a0,0,0,0,1,0,0H295.27a0,0,0,0,1,0,0V332.34A7.13,7.13,0,0,1,302.41,325.21Z" opacity="0.2"/>
  <path d="M452.81,522.63h-322a9.06,9.06,0,0,1-9.05-9.05V500.73a9.06,9.06,0,0,1,9.05-9.05h322a9.06,9.06,0,0,1,9.05,9.05v12.84A9.06,9.06,0,0,1,452.81,522.63Z" fill="#e6e6e6"/>
  <path d="M452.81,524.63h-322a11.06,11.06,0,0,1-11.05-11.05V500.73a11.06,11.06,0,0,1,11.05-11.05h322a11.06,11.06,0,0,1,11.05,11.05v12.84A11.06,11.06,0,0,1,452.81,524.63Zm-322-32.94a9.06,9.06,0,0,0-9.05,9.05v12.84a9.06,9.06,0,0,0,9.05,9.05h322a9.06,9.06,0,0,0,9.05-9.05V500.73a9.06,9.06,0,0,0-9.05-9.05Z" fill="#3f3d56"/>
  <rect x="140.9" y="498.23" width="12.86" height="12.86" rx="2" fill="#3498db"/>
  <path d="M640.5,525.73h-148a8.81,8.81,0,0,1-8.8-8.8v-5.4a8.81,8.81,0,0,1,8.8-8.8h148a8.81,8.81,0,0,1,8.8,8.8v5.4A8.81,8.81,0,0,1,640.5,525.73Z" fill="#3498db"/>
  <path d="M767.37,524.34a8.12,8.12,0,0,1-8.12,8.12H654.31a8.12,8.12,0,0,1-8.12-8.12v-4.29a8.12,8.12,0,0,1,8.12-8.12h104.94a8.12,8.12,0,0,1,8.12,8.12Z" fill="#3498db"/>
</svg> 